<?xml version="1.0" encoding="UTF-8" standalone="no"?>
<!-- Created with Inkscape (http://www.inkscape.org/) -->

<svg
   xmlns:dc="http://purl.org/dc/elements/1.1/"
   xmlns:cc="http://creativecommons.org/ns#"
   xmlns:rdf="http://www.w3.org/1999/02/22-rdf-syntax-ns#"
   xmlns:svg="http://www.w3.org/2000/svg"
   xmlns="http://www.w3.org/2000/svg"
   xmlns:xlink="http://www.w3.org/1999/xlink"
   xmlns:sodipodi="http://sodipodi.sourceforge.net/DTD/sodipodi-0.dtd"
   xmlns:inkscape="http://www.inkscape.org/namespaces/inkscape"
   width="210mm"
   height="297mm"
   viewBox="0 0 210 297"
   version="1.1"
   id="svg8"
   inkscape:version="0.92.4 (5da689c313, 2019-01-14)"
   sodipodi:docname="Map_Contour.svg">
  <title
     id="title869">Map_Contour</title>
  <defs
     id="defs2">
    <radialGradient
       inkscape:collect="always"
       xlink:href="#linearGradient5435-4"
       id="radialGradient5472"
       gradientUnits="userSpaceOnUse"
       gradientTransform="matrix(0.90890861,-0.08832654,0.05610889,0.57733445,-298.30755,-234.49677)"
       cx="210.39124"
       cy="187.0336"
       fx="210.39124"
       fy="187.0336"
       r="132.65845" />
    <linearGradient
       inkscape:collect="always"
       id="linearGradient5435-4">
      <stop
         style="stop-color:#75923c;stop-opacity:1;"
         offset="0"
         id="stop5460" />
      <stop
         style="stop-color:#95b750;stop-opacity:1"
         offset="1"
         id="stop5462" />
    </linearGradient>
  </defs>
  <sodipodi:namedview
     id="base"
     pagecolor="#ffffff"
     bordercolor="#666666"
     borderopacity="1.0"
     inkscape:pageopacity="0.0"
     inkscape:pageshadow="2"
     inkscape:zoom="0.35"
     inkscape:cx="-64.285714"
     inkscape:cy="1360"
     inkscape:document-units="mm"
     inkscape:current-layer="layer1"
     showgrid="false"
     inkscape:window-width="1920"
     inkscape:window-height="1017"
     inkscape:window-x="-8"
     inkscape:window-y="-8"
     inkscape:window-maximized="1" />
  <metadata
     id="metadata5">
    <rdf:RDF>
      <cc:Work
         rdf:about="">
        <dc:format>image/svg+xml</dc:format>
        <dc:type
           rdf:resource="http://purl.org/dc/dcmitype/StillImage" />
        <dc:title>Map_Contour</dc:title>
      </cc:Work>
    </rdf:RDF>
  </metadata>
  <g
     inkscape:label="Layer 1"
     inkscape:groupmode="layer"
     id="layer1">
    <path
       sodipodi:nodetypes="aaaaaaaaaaaaaaaaaaaaaaaaaaaaaaaaaaaaa"
       inkscape:connector-curvature="0"
       id="path5470"
       d="m -240.31282,-162.96938 c 2.58836,6.65311 6.41018,12.80492 10.42351,18.70887 5.69468,8.37735 12.5015,15.95954 19.24341,23.51971 8.59612,9.63943 15.81481,21.328206 26.99422,27.796036 4.69446,2.71598 10.35092,4.25391 15.7689,4.00904 16.04452,-0.72514 29.60548,-13.324546 45.43582,-16.036166 12.0301,-2.06067 24.51409,-1.58587 36.61593,0 10.97057,1.43762 21.66212,4.80462 32.07234,8.552616 15.86554,5.71208 29.64446,16.89433 45.9703601,21.11429 9.16901,2.37003 21.3121599,8.49665 28.3305599,2.13816 5.67954,-5.14554 1.58265,-15.39339 0.53453,-22.98518 -2.07735,-15.046766 -9.00808,-29.013256 -13.3634699,-43.564926 -4.9231,-16.44844 -0.29895,-39.69654 -14.43254,-49.44486 -4.6347901,-3.19674 -11.2339001,1.87923 -16.8379801,1.33635 -10.21955,-0.98999 -19.42085,-8.94658 -29.66692,-8.28536 -6.37393,0.41133 -11.25312,7.56466 -17.63979,7.48355 -8.61112,-0.10936 -15.04472,-9.16184 -23.51972,-10.69078 -7.55834,-1.36357 -15.47084,3.19184 -22.98518,1.60361 -6.9014,-1.45868 -12.17809,-7.22324 -18.70886,-9.88897 -15.05832,-6.1465 -30.84941,-10.58173 -46.77217,-13.89802 -4.30562,-0.89674 -9.89653,-4.62097 -13.09621,-1.60361 -5.13068,4.83833 -0.12411,14.21499 1.33635,21.11429 0.90479,4.27432 3.64047,8.01972 4.54358,12.2944 1.18089,5.58949 -1.12681,11.83125 1.06908,17.10525 0.8247,1.98074 2.18814,4.3179 4.27631,4.81085 3.73544,0.88182 7.40153,-2.29845 10.69078,-4.27631 1.30019,-0.78182 1.96015,-3.03192 3.4745,-2.93997 8.24331,0.50053 11.31197,12.03708 16.83798,18.17433 1.90108,2.11136 6.16083,3.62674 5.61267,6.41447 -1.11465,5.66857 -10.11397,5.6656 -15.50164,7.75081 -3.3667,1.30303 -6.88848,3.67218 -10.42351,2.93997 -7.87514,-1.63117 -13.33271,-9.25309 -18.70887,-15.23436 -4.47655,-4.98041 -6.90356,-11.50833 -10.95805,-16.83798 -3.09533,-4.06884 -5.18232,-10.3108 -10.15624,-11.49259 -6.068,-1.44174 -11.92911,3.90457 -17.37252,6.949 -3.77892,2.11351 -8.94357,3.68179 -10.42351,7.75082 -0.65735,1.80736 0.63905,3.82034 1.33635,5.61266 z"
       style="fill:url(#radialGradient5472);fill-opacity:1;stroke:none;stroke-width:0.26458332px;stroke-linecap:butt;stroke-linejoin:miter;stroke-opacity:1" />
    <flowRoot
       xml:space="preserve"
       id="flowRoot5474"
       style="font-style:normal;font-variant:normal;font-weight:normal;font-stretch:normal;font-size:40px;line-height:1.25;font-family:Mael;-inkscape-font-specification:Mael;letter-spacing:0px;word-spacing:0px;fill:#6d6742;fill-opacity:1;stroke:none"
       transform="matrix(0.26318304,0.02718504,-0.02718504,0.26318304,-214.87955,-267.45772)"><flowRegion
         id="flowRegion5476"
         style="font-style:normal;font-variant:normal;font-weight:normal;font-stretch:normal;font-family:Mael;-inkscape-font-specification:Mael;fill:#6d6742;fill-opacity:1"><rect
           id="rect5478"
           width="179.91238"
           height="69.727982"
           x="442.85715"
           y="618.57141"
           style="font-style:normal;font-variant:normal;font-weight:normal;font-stretch:normal;font-family:Mael;-inkscape-font-specification:Mael;fill:#6d6742;fill-opacity:1" /></flowRegion><flowPara
         id="flowPara5480"
         style="font-style:normal;font-variant:normal;font-weight:normal;font-stretch:normal;font-family:Mael;-inkscape-font-specification:Mael;fill:#6d6742;fill-opacity:1">Kabaty</flowPara></flowRoot>    <flowRoot
       transform="matrix(0.17125537,0.20168277,-0.20168277,0.17125537,-212.6272,-364.92325)"
       style="font-style:normal;font-variant:normal;font-weight:normal;font-stretch:normal;font-size:40px;line-height:1.25;font-family:Mael;-inkscape-font-specification:Mael;letter-spacing:0px;word-spacing:0px;fill:#6d6742;fill-opacity:1;stroke:none"
       id="flowRoot5490"
       xml:space="preserve"><flowRegion
         style="font-style:normal;font-variant:normal;font-weight:normal;font-stretch:normal;font-family:Mael;-inkscape-font-specification:Mael;fill:#6d6742;fill-opacity:1"
         id="flowRegion5486"><rect
           style="font-style:normal;font-variant:normal;font-weight:normal;font-stretch:normal;font-family:Mael;-inkscape-font-specification:Mael;fill:#6d6742;fill-opacity:1"
           y="618.57141"
           x="442.85715"
           height="63.765823"
           width="300.36911"
           id="rect5484" /></flowRegion><flowPara
         style="font-style:normal;font-variant:normal;font-weight:normal;font-stretch:normal;font-family:Mael;-inkscape-font-specification:Mael;fill:#6d6742;fill-opacity:1"
         id="flowPara5488">Culture Park</flowPara></flowRoot>    <flowRoot
       transform="matrix(0.2628149,-0.03053964,0.03053964,0.2628149,-238.6664,-373.33399)"
       style="font-style:normal;font-variant:normal;font-weight:normal;font-stretch:normal;font-size:40px;line-height:1.25;font-family:Mael;-inkscape-font-specification:Mael;letter-spacing:0px;word-spacing:0px;fill:#6d6742;fill-opacity:1;stroke:none"
       id="flowRoot5506"
       xml:space="preserve"><flowRegion
         style="font-style:normal;font-variant:normal;font-weight:normal;font-stretch:normal;font-family:Mael;-inkscape-font-specification:Mael;fill:#6d6742;fill-opacity:1"
         id="flowRegion5502"><rect
           style="font-style:normal;font-variant:normal;font-weight:normal;font-stretch:normal;font-family:Mael;-inkscape-font-specification:Mael;fill:#6d6742;fill-opacity:1"
           y="618.57141"
           x="442.85715"
           height="65.714317"
           width="282.14282"
           id="rect5500" /></flowRegion><flowPara
         style="font-style:normal;font-variant:normal;font-weight:normal;font-stretch:normal;font-family:Mael;-inkscape-font-specification:Mael;fill:#6d6742;fill-opacity:1"
         id="flowPara5504">Józefosław</flowPara></flowRoot>    <flowRoot
       xml:space="preserve"
       id="flowRoot5514"
       style="font-style:normal;font-variant:normal;font-weight:normal;font-stretch:normal;font-size:40px;line-height:1.25;font-family:Mael;-inkscape-font-specification:Mael;letter-spacing:0px;word-spacing:0px;fill:#6d6742;fill-opacity:1;stroke:none"
       transform="matrix(0.26076613,-0.0447813,0.0447813,0.26076613,-374.42782,-371.84111)"><flowRegion
         id="flowRegion5510"
         style="font-style:normal;font-variant:normal;font-weight:normal;font-stretch:normal;font-family:Mael;-inkscape-font-specification:Mael;fill:#6d6742;fill-opacity:1"><rect
           id="rect5508"
           width="282.14282"
           height="65.714317"
           x="442.85715"
           y="618.57141"
           style="font-style:normal;font-variant:normal;font-weight:normal;font-stretch:normal;font-family:Mael;-inkscape-font-specification:Mael;fill:#6d6742;fill-opacity:1" /></flowRegion><flowPara
         id="flowPara5512"
         style="font-style:normal;font-variant:normal;font-weight:normal;font-stretch:normal;font-family:Mael;-inkscape-font-specification:Mael;fill:#6d6742;fill-opacity:1">Klarysew</flowPara></flowRoot>    <flowRoot
       transform="matrix(-0.07459661,-0.25384973,0.25384973,-0.07459661,-101.41188,36.895006)"
       style="font-style:normal;font-variant:normal;font-weight:normal;font-stretch:normal;font-size:40px;line-height:1.25;font-family:Mael;-inkscape-font-specification:Mael;letter-spacing:0px;word-spacing:0px;fill:#6d6742;fill-opacity:1;stroke:none"
       id="flowRoot5522"
       xml:space="preserve"><flowRegion
         style="font-style:normal;font-variant:normal;font-weight:normal;font-stretch:normal;font-family:Mael;-inkscape-font-specification:Mael;fill:#6d6742;fill-opacity:1"
         id="flowRegion5518"><rect
           style="font-style:normal;font-variant:normal;font-weight:normal;font-stretch:normal;font-family:Mael;-inkscape-font-specification:Mael;fill:#6d6742;fill-opacity:1"
           y="618.57141"
           x="442.85715"
           height="65.714317"
           width="282.14282"
           id="rect5516" /></flowRegion><flowPara
         style="font-style:normal;font-variant:normal;font-weight:normal;font-stretch:normal;font-family:Mael;-inkscape-font-specification:Mael;fill:#6d6742;fill-opacity:1"
         id="flowPara5520">Pyry</flowPara></flowRoot>  </g>
</svg>
