<?xml version="1.0" encoding="UTF-8" standalone="no"?>
<!-- Created with Inkscape (http://www.inkscape.org/) -->

<svg
   xmlns:dc="http://purl.org/dc/elements/1.1/"
   xmlns:cc="http://creativecommons.org/ns#"
   xmlns:rdf="http://www.w3.org/1999/02/22-rdf-syntax-ns#"
   xmlns:svg="http://www.w3.org/2000/svg"
   xmlns="http://www.w3.org/2000/svg"
   xmlns:sodipodi="http://sodipodi.sourceforge.net/DTD/sodipodi-0.dtd"
   xmlns:inkscape="http://www.inkscape.org/namespaces/inkscape"
   width="1280"
   height="800"
   viewBox="0 0 338.66666 211.66667"
   version="1.1"
   id="svg4581"
   inkscape:version="0.92.4 (5da689c313, 2019-01-14)"
   sodipodi:docname="Map_NextDayButton_Highlight.svg">
  <defs
     id="defs4575" />
  <sodipodi:namedview
     id="base"
     pagecolor="#ffffff"
     bordercolor="#666666"
     borderopacity="1.0"
     inkscape:pageopacity="0.0"
     inkscape:pageshadow="2"
     inkscape:zoom="0.35"
     inkscape:cx="955.71429"
     inkscape:cy="1688.5714"
     inkscape:document-units="mm"
     inkscape:current-layer="layer1"
     showgrid="false"
     showborder="false"
     units="px"
     inkscape:window-width="1920"
     inkscape:window-height="1017"
     inkscape:window-x="-8"
     inkscape:window-y="-8"
     inkscape:window-maximized="1" />
  <metadata
     id="metadata4578">
    <rdf:RDF>
      <cc:Work
         rdf:about="">
        <dc:format>image/svg+xml</dc:format>
        <dc:type
           rdf:resource="http://purl.org/dc/dcmitype/StillImage" />
        <dc:title></dc:title>
      </cc:Work>
    </rdf:RDF>
  </metadata>
  <g
     inkscape:label="Layer 1"
     inkscape:groupmode="layer"
     id="layer1"
     transform="translate(0,-85.333317)">
    <path
       inkscape:connector-curvature="0"
       id="path4848"
       d="m 551.0044,-51.830568 a 22.811605,22.811605 0 0 0 -1.94785,0.0975 22.811604,22.811604 0 0 0 -1.11988,0.13598 22.811605,22.811605 0 0 0 -1.13704,0.172179 22.811604,22.811604 0 0 0 -1.10596,0.24784 22.811605,22.811605 0 0 0 -1.10829,0.283101 22.811604,22.811604 0 0 0 -1.07718,0.357819 22.811605,22.811605 0 0 0 -1.07626,0.392631 22.811604,22.811604 0 0 0 -1.03493,0.46318 22.811605,22.811605 0 0 0 -1.0294,0.497519 22.811604,22.811604 0 0 0 -0.9876,0.566671 22.811605,22.811605 0 0 0 -0.97184,0.595909 22.811604,22.811604 0 0 0 -0.93098,0.665991 22.811605,22.811605 0 0 0 -0.89897,0.68316 22.811604,22.811604 0 0 0 -0.86696,0.76113 22.811605,22.811605 0 0 0 -0.82656,0.77041 22.811604,22.811604 0 0 0 -0.77645,0.83306 22.811605,22.811605 0 0 0 -0.75323,0.857669 22.811604,22.811604 0 0 0 -0.68873,0.906391 22.811605,22.811605 0 0 0 -0.6632,0.92728 22.811604,22.811604 0 0 0 -0.59592,0.97183 22.811605,22.811605 0 0 0 -0.56666,0.98761 22.811604,22.811604 0 0 0 -0.49753,1.029377 22.811605,22.811605 0 0 0 -0.46317,1.03495 22.811604,22.811604 0 0 0 -0.39262,1.07626 22.811605,22.811605 0 0 0 -0.35783,1.07718 22.811604,22.811604 0 0 0 -0.28311,1.10828 22.811605,22.811605 0 0 0 -0.24783,1.10596 22.811604,22.811604 0 0 0 -0.17218,1.13705 22.811605,22.811605 0 0 0 -0.13597,1.11988 22.811604,22.811604 0 0 0 -0.0975,1.94784 22.811605,22.811605 0 0 0 0.0975,1.94785 22.811604,22.811604 0 0 0 0.13597,1.11988 22.811605,22.811605 0 0 0 0.17218,1.13705 22.811604,22.811604 0 0 0 0.24691,1.10085 22.811605,22.811605 0 0 0 0.28543,1.11849 22.811604,22.811604 0 0 0 0.35317,1.0628 22.811605,22.811605 0 0 0 0.39635,1.08647 22.811604,22.811604 0 0 0 0.4627,1.03401 22.811605,22.811605 0 0 0 0.49753,1.02939 22.811604,22.811604 0 0 0 0.56435,0.9839 22.811605,22.811605 0 0 0 0.33414,0.58291 22.811604,22.811604 0 0 1 -0.3541,-0.48962 22.811604,22.811604 0 0 0 19.78935,11.5218303 22.811604,22.811604 0 0 0 22.81161,-22.8116103 22.811604,22.811604 0 0 0 -1.52688,-8.10928 22.811605,22.811605 0 0 0 -11.95578,-13.028778 22.811604,22.811604 0 0 0 0,-4.76e-4 22.811605,22.811605 0 0 0 -1.95388,-0.78573 22.811604,22.811604 0 0 0 -0.2404,-0.0877 22.811605,22.811605 0 0 0 -1.77938,-0.51562 22.811604,22.811604 0 0 0 -0.4924,-0.12577 22.811605,22.811605 0 0 0 -1.57286,-0.2896 22.811604,22.811604 0 0 0 -0.75323,-0.11417 22.811605,22.811605 0 0 0 -1.33569,-0.11 22.811604,22.811604 0 0 0 -1.37096,-0.0687 z"
       style="display:inline;opacity:1;fill:#a89f68;fill-opacity:1;fill-rule:nonzero;stroke:#f5c396;stroke-width:4.75241756;stroke-linecap:butt;stroke-linejoin:miter;stroke-miterlimit:4;stroke-dasharray:none;stroke-opacity:1" />
    <path
       style="display:inline;opacity:1;fill:#a89f68;fill-opacity:1;fill-rule:nonzero;stroke:none;stroke-width:0.6340549;stroke-linecap:butt;stroke-linejoin:miter;stroke-miterlimit:4;stroke-dasharray:none;stroke-opacity:1"
       d="m 573.81602,-29.018971 a 22.811605,22.811605 0 0 1 -22.81161,22.8116003 22.811605,22.811605 0 0 1 -22.81161,-22.8116003 22.811605,22.811605 0 0 1 22.81161,-22.811608 22.811605,22.811605 0 0 1 22.81161,22.811608 z"
       id="path4850"
       inkscape:connector-curvature="0" />
    <path
       inkscape:connector-curvature="0"
       id="path4852"
       d="m 551.0044,-51.830568 a 22.811604,22.811604 0 0 0 -22.8116,22.811607 22.811604,22.811604 0 0 0 16.07051,21.7924303 22.811604,22.811604 0 0 1 -13.31002,-20.7124703 22.811604,22.811604 0 0 1 22.8116,-22.811598 22.811604,22.811604 0 0 1 6.73831,1.01777 22.811604,22.811604 0 0 0 -9.4988,-2.097739 z"
       style="display:inline;opacity:1;fill:#8c8451;fill-opacity:1;fill-rule:nonzero;stroke:none;stroke-width:0.6340549;stroke-linecap:butt;stroke-linejoin:miter;stroke-miterlimit:4;stroke-dasharray:none;stroke-opacity:1" />
    <path
       inkscape:connector-curvature="0"
       id="path4854"
       d="m 570.19969,-41.157398 a 22.811604,22.811604 0 0 1 3.02226,11.289777 22.811604,22.811604 0 0 1 -22.8116,22.8116103 22.811604,22.811604 0 0 1 -19.02546,-10.2488003 22.811604,22.811604 0 0 0 19.78936,11.5218303 22.811604,22.811604 0 0 0 22.8116,-22.8116003 22.811604,22.811604 0 0 0 -3.78616,-12.562817 z"
       style="display:inline;opacity:1;fill:#baad56;fill-opacity:1;fill-rule:nonzero;stroke:none;stroke-width:0.6340549;stroke-linecap:butt;stroke-linejoin:miter;stroke-miterlimit:4;stroke-dasharray:none;stroke-opacity:1" />
    <path
       style="color:#000000;font-style:normal;font-variant:normal;font-weight:normal;font-stretch:normal;font-size:medium;line-height:normal;font-family:sans-serif;font-variant-ligatures:normal;font-variant-position:normal;font-variant-caps:normal;font-variant-numeric:normal;font-variant-alternates:normal;font-feature-settings:normal;text-indent:0;text-align:start;text-decoration:none;text-decoration-line:none;text-decoration-style:solid;text-decoration-color:#000000;letter-spacing:normal;word-spacing:normal;text-transform:none;writing-mode:lr-tb;direction:ltr;text-orientation:mixed;dominant-baseline:auto;baseline-shift:baseline;text-anchor:start;white-space:normal;shape-padding:0;clip-rule:nonzero;display:inline;overflow:visible;visibility:visible;opacity:1;isolation:auto;mix-blend-mode:normal;color-interpolation:sRGB;color-interpolation-filters:linearRGB;solid-color:#000000;solid-opacity:1;vector-effect:none;fill:#d0b17a;fill-opacity:1;fill-rule:nonzero;stroke:none;stroke-width:1.900967;stroke-linecap:butt;stroke-linejoin:round;stroke-miterlimit:4;stroke-dasharray:none;stroke-dashoffset:0;stroke-opacity:1;color-rendering:auto;image-rendering:auto;shape-rendering:auto;text-rendering:auto;enable-background:accumulate"
       d="m 552.08683,-42.902898 c -1.72301,-0.11259 -3.71536,0.0833 -5.5957,0.47852 -1.88034,0.3952 -3.63176,0.97609 -4.9043,1.74023 -0.63626,0.38207 -1.17192,0.80174 -1.51953,1.400387 -0.34761,0.59866 -0.37637,1.4792 0.0254,2.11914 1.10544,1.76078 1.55797,3.0433 2.48438,4.23438 0.9264,1.19108 2.29846,2.09205 4.83593,2.89844 0.46651,0.14825 0.5798,0.20944 0.81446,0.30273 -3.02373,2.10521 -4.22334,4.68263 -4.27539,7.06055 -0.0546,2.49543 0.96465,4.70447 1.73437,6.20312 a 0.95057857,0.95057857 0 0 0 1.04492,0.4961 c 5.79395,-1.24127 8.51458,-1.21706 13.625,-4.96289 a 0.95057857,0.95057857 0 0 0 0.31055,-0.39258 c 0.30955,-0.72103 0.27468,-1.51874 0.0547,-2.40625 -0.21999,-0.88751 -0.6643,-1.85727 -1.37696,-2.79688 -1.39461,-1.83875 -3.85881,-3.51772 -7.55078,-4.06054 0.0339,-0.0207 0.0825,-0.0949 0.11524,-0.10938 2.18806,-0.9703 3.1607,-2.95268 3.60937,-4.83008 0.44868,-1.87739 0.49762,-3.78106 0.78711,-4.906247 a 0.95057857,0.95057857 0 0 0 -0.11328,-0.74023 c -0.80496,-1.28863 -2.38245,-1.61592 -4.10547,-1.72852 z m -0.12304,1.896489 c 1.28508,0.084 2.0758,0.436001 2.40234,0.712891 -0.27089,1.384957 -0.3598,2.920337 -0.69531,4.324217 -0.38311,1.60303 -1.0013,2.85474 -2.53125,3.5332 -0.69072,0.3063 -1.08475,0.81497 -1.4336,1.25391 -0.0165,-0.009 -0.0144,-0.0129 -0.0312,-0.0215 -0.34269,-0.17491 -0.83166,-0.36731 -1.68554,-0.63867 -2.35362,-0.74796 -3.2324,-1.38251 -3.91016,-2.25391 -0.67776,-0.87139 -1.1812,-2.17855 -2.375,-4.08007 -0.078,-0.1242 -0.075,-0.01 0.008,-0.15235 0.0828,-0.14262 0.37461,-0.43898 0.85352,-0.72656 0.95781,-0.575157 2.58187,-1.142847 4.31836,-1.507807 1.73649,-0.36497 3.60311,-0.53988 5.08008,-0.44336 z m -1.83008,12.068358 c 0.29109,0.0532 0.57241,0.1029 1.1875,0.18359 3.38548,0.44412 5.3877,1.90012 6.50781,3.37695 0.56006,0.73842 0.89406,1.48898 1.04688,2.10547 0.12862,0.51893 0.0727,0.83033 0.0371,1.00782 -4.34926,3.10916 -6.74298,3.24139 -11.81836,4.27343 -0.64036,-1.33928 -1.27891,-2.9571 -1.24218,-4.63476 0.0424,-1.93801 0.84124,-3.92754 3.80468,-5.82422 0.22772,-0.14574 0.30484,-0.32037 0.47657,-0.48828 z"
       id="path4856"
       inkscape:connector-curvature="0" />
    <path
       style="color:#000000;font-style:normal;font-variant:normal;font-weight:normal;font-stretch:normal;font-size:medium;line-height:normal;font-family:sans-serif;font-variant-ligatures:normal;font-variant-position:normal;font-variant-caps:normal;font-variant-numeric:normal;font-variant-alternates:normal;font-feature-settings:normal;text-indent:0;text-align:start;text-decoration:none;text-decoration-line:none;text-decoration-style:solid;text-decoration-color:#000000;letter-spacing:normal;word-spacing:normal;text-transform:none;writing-mode:lr-tb;direction:ltr;text-orientation:mixed;dominant-baseline:auto;baseline-shift:baseline;text-anchor:start;white-space:normal;shape-padding:0;clip-rule:nonzero;display:inline;overflow:visible;visibility:visible;opacity:1;isolation:auto;mix-blend-mode:normal;color-interpolation:sRGB;color-interpolation-filters:linearRGB;solid-color:#000000;solid-opacity:1;vector-effect:none;fill:#f5c396;fill-opacity:1;fill-rule:nonzero;stroke:none;stroke-width:1.900967;stroke-linecap:butt;stroke-linejoin:round;stroke-miterlimit:4;stroke-dasharray:none;stroke-dashoffset:0;stroke-opacity:1;color-rendering:auto;image-rendering:auto;shape-rendering:auto;text-rendering:auto;enable-background:accumulate"
       d="m 552.68254,-42.565008 c -1.72302,-0.11259 -3.71537,0.0853 -5.59571,0.48047 -1.88034,0.3952 -3.63372,0.976089 -4.90625,1.74024 -0.63626,0.38207 -1.17192,0.801727 -1.51953,1.400387 -0.34761,0.59866 -0.37638,1.47919 0.0254,2.11914 1.10544,1.76078 1.55993,3.04329 2.48633,4.23437 0.9264,1.19109 2.29845,2.09205 4.83594,2.89844 0.46609,0.14812 0.57787,0.20948 0.8125,0.30274 -3.02373,2.1052 -4.22334,4.68263 -4.27539,7.06054 -0.0546,2.49544 0.96465,4.70448 1.73437,6.20313 a 0.95057857,0.95057857 0 0 0 1.04492,0.49609 c 5.79395,-1.24127 8.51458,-1.21901 13.625,-4.96484 a 0.95057857,0.95057857 0 0 0 0.31055,-0.39063 c 0.30955,-0.72103 0.27468,-1.51874 0.0547,-2.40625 -0.21999,-0.88751 -0.6643,-1.85727 -1.37695,-2.79687 -1.3946,-1.83873 -3.85696,-3.5177 -7.54883,-4.06055 0.0336,-0.0204 0.0808,-0.095 0.11328,-0.10938 2.18806,-0.9703 3.16265,-2.95268 3.61133,-4.83007 0.44867,-1.8774 0.49761,-3.78106 0.78711,-4.906247 a 0.95057857,0.95057857 0 0 0 -0.11524,-0.74024 c -0.80496,-1.28862 -2.3805,-1.61787 -4.10351,-1.73047 z m -0.125,1.89844 c 1.28392,0.0839 2.07506,0.43415 2.40234,0.71094 -0.27093,1.385007 -0.35979,2.922207 -0.69531,4.326167 -0.38311,1.60304 -1.0013,2.85474 -2.53125,3.5332 -0.69072,0.3063 -1.08475,0.81497 -1.4336,1.25391 -0.0165,-0.009 -0.0144,-0.0129 -0.0312,-0.0215 -0.34269,-0.17491 -0.83166,-0.36927 -1.68554,-0.64063 -2.35362,-0.74796 -3.23241,-1.38056 -3.91016,-2.25195 -0.67775,-0.8714 -1.1812,-2.17856 -2.375,-4.08008 -0.078,-0.1242 -0.075,-0.01 0.008,-0.15234 0.0828,-0.14263 0.37657,-0.43899 0.85547,-0.72657 0.95781,-0.57515 2.57992,-1.142847 4.31641,-1.507807 1.73648,-0.36496 3.60311,-0.53988 5.08008,-0.44336 z m -1.83008,12.068357 c 0.2911,0.0532 0.57241,0.10291 1.1875,0.18359 3.38549,0.44413 5.3877,1.89817 6.50781,3.375 0.56006,0.73842 0.89406,1.48898 1.04687,2.10547 0.12867,0.51909 0.0727,0.83239 0.0371,1.00977 -4.34776,3.10757 -6.74385,3.24157 -11.81835,4.27344 -0.64037,-1.33928 -1.27892,-2.95906 -1.24219,-4.63672 0.0424,-1.93801 0.84124,-3.92559 3.80469,-5.82227 0.22771,-0.14574 0.30483,-0.32037 0.47656,-0.48828 z"
       id="path4858"
       inkscape:connector-curvature="0" />
    <g
       id="g4868"
       style="font-style:normal;font-variant:normal;font-weight:normal;font-stretch:normal;font-size:10.58333302px;line-height:1.25;font-family:'Snap ITC';-inkscape-font-specification:'Snap ITC';letter-spacing:0px;word-spacing:0px;display:inline;fill:#d0b17a;fill-opacity:1;stroke:none;stroke-width:0.26458332"
       aria-label="Next"
       transform="matrix(0.89809471,0,0,0.89809471,253.14538,-335.01335)">
      <path
         inkscape:connector-curvature="0"
         id="path4860"
         style="font-size:8.46666622px;fill:#d0b17a;fill-opacity:1"
         d="m 319.49527,320.37011 -0.38434,0.58926 2.10761,4.40809 0.98506,-0.20256 -1.71329,1.32975 -4.86005,-1.91983 2.99442,2.67189 1.24125,-0.0989 -4.0909,2.17609 0.32592,-0.78341 -2.25481,-3.96985 -1.05849,0.21128 2.631,-2.31931 4.31746,2.69731 -2.51676,-3.14935 -0.80716,-0.008 z" />
      <path
         inkscape:connector-curvature="0"
         id="path4862"
         style="font-size:8.46666622px;fill:#d0b17a;fill-opacity:1"
         d="m 322.71881,322.2603 q 0.15844,0.0629 0.34662,0.0687 0.18694,0.002 0.36441,-0.0539 0.31156,-0.098 0.4517,-0.34138 0.14014,-0.24342 0.0509,-0.52737 -0.0434,-0.13803 -0.11756,-0.23605 -0.0742,-0.098 -0.18798,-0.17058 -0.40214,0.19579 -0.63118,0.51483 -0.22634,0.31385 -0.27687,0.74577 z m 4.80819,1.57802 -0.56079,-0.54305 q -0.42035,0.4962 -0.89402,0.82283 -0.47368,0.32662 -1.03369,0.50271 -1.09242,0.3435 -1.92091,0.0103 -0.8258,-0.33839 -1.10729,-1.23362 -0.14881,-0.47325 -0.10899,-0.96681 0.0425,-0.49874 0.26693,-0.929 0.2163,-0.4147 0.57955,-0.7066 0.36719,-0.29314 0.86805,-0.45063 0.95833,-0.30134 1.71164,-0.0832 0.75332,0.21817 0.95049,0.84522 0.19842,0.631 -0.24344,1.23797 -0.43792,0.60574 -1.3016,0.87731 -0.21296,0.067 -0.40824,0.0937 -0.19651,0.0228 -0.38718,0.009 0.45008,0.13583 0.84346,0.14648 0.39608,0.005 0.77468,-0.11358 0.46142,-0.14509 0.78342,-0.47169 0.32201,-0.3266 0.4753,-0.80383 z" />
      <path
         inkscape:connector-curvature="0"
         id="path4864"
         style="font-size:8.46666622px;fill:#d0b17a;fill-opacity:1"
         d="m 334.52272,319.11103 -0.82337,0.32107 -1.50664,1.48755 1.77564,1.9426 0.71035,0.12376 -3.79439,0.58226 0.53387,-0.47131 -0.85887,-1.36199 -0.47588,1.40799 0.44124,0.35746 -2.96854,-0.004 0.68933,-0.27256 1.31605,-2.03632 -1.43621,-1.39759 -0.73016,-0.1848 3.60537,-0.55567 -0.4904,0.5104 0.47736,0.95997 0.70571,-1.05588 -0.49141,-0.28855 z" />
      <path
         inkscape:connector-curvature="0"
         id="path4866"
         style="font-size:8.46666622px;fill:#d0b17a;fill-opacity:1"
         d="m 339.49356,324.44605 -0.47129,-0.79981 q -0.50966,0.25842 -0.99334,0.34079 -0.48288,0.0783 -0.97787,-0.0185 -0.77089,-0.1507 -1.14618,-0.68742 -0.37528,-0.53673 -0.22934,-1.28327 0.0436,-0.22315 0.14042,-0.52437 0.10085,-0.30043 0.28529,-0.76985 l -0.48175,-0.0352 -0.57849,0.65357 0.3337,-2.50431 0.44719,0.66451 0.77971,0.12715 q 0.18807,-0.38026 0.3787,-0.73053 0.19549,-0.35354 0.39838,-0.68035 l -0.96094,-0.60066 3.58514,0.53657 -1.12995,0.43624 q -0.15411,0.35741 -0.28813,0.67662 -0.12995,0.32001 -0.23971,0.62291 l 0.93705,0.14106 0.78523,-0.65528 -0.54957,2.27256 -0.442,-0.77724 -1.04209,-0.0563 q -0.10482,0.32071 -0.17745,0.58453 -0.0726,0.26382 -0.1115,0.46262 -0.088,0.45037 0.0151,0.67693 0.10314,0.22657 0.42367,0.28923 0.30835,0.0603 0.67269,-0.058 0.36433,-0.11833 0.73931,-0.39887 z" />
    </g>
    <g
       aria-label="Next"
       style="font-style:normal;font-variant:normal;font-weight:normal;font-stretch:normal;font-size:10.58333302px;line-height:1.25;font-family:'Snap ITC';-inkscape-font-specification:'Snap ITC';letter-spacing:0px;word-spacing:0px;display:inline;fill:#f5c396;fill-opacity:1;stroke:none;stroke-width:0.26458332"
       id="g4878"
       transform="matrix(0.89809471,0,0,0.89809471,253.2654,-334.96062)">
      <path
         d="m 319.49527,320.37011 -0.38434,0.58926 2.10761,4.40809 0.98506,-0.20256 -1.71329,1.32975 -4.86005,-1.91983 2.99442,2.67189 1.24125,-0.0989 -4.0909,2.17609 0.32592,-0.78341 -2.25481,-3.96985 -1.05849,0.21128 2.631,-2.31931 4.31746,2.69731 -2.51676,-3.14935 -0.80716,-0.008 z"
         style="font-size:8.46666622px;fill:#f5c396;fill-opacity:1"
         id="path4870"
         inkscape:connector-curvature="0" />
      <path
         d="m 322.71881,322.2603 q 0.15844,0.0629 0.34662,0.0687 0.18694,0.002 0.36441,-0.0539 0.31156,-0.098 0.4517,-0.34138 0.14014,-0.24342 0.0509,-0.52737 -0.0434,-0.13803 -0.11756,-0.23605 -0.0742,-0.098 -0.18798,-0.17058 -0.40214,0.19579 -0.63118,0.51483 -0.22634,0.31385 -0.27687,0.74577 z m 4.80819,1.57802 -0.56079,-0.54305 q -0.42035,0.4962 -0.89402,0.82283 -0.47368,0.32662 -1.03369,0.50271 -1.09242,0.3435 -1.92091,0.0103 -0.8258,-0.33839 -1.10729,-1.23362 -0.14881,-0.47325 -0.10899,-0.96681 0.0425,-0.49874 0.26693,-0.929 0.2163,-0.4147 0.57955,-0.7066 0.36719,-0.29314 0.86805,-0.45063 0.95833,-0.30134 1.71164,-0.0832 0.75332,0.21817 0.95049,0.84522 0.19842,0.631 -0.24344,1.23797 -0.43792,0.60574 -1.3016,0.87731 -0.21296,0.067 -0.40824,0.0937 -0.19651,0.0228 -0.38718,0.009 0.45008,0.13583 0.84346,0.14648 0.39608,0.005 0.77468,-0.11358 0.46142,-0.14509 0.78342,-0.47169 0.32201,-0.3266 0.4753,-0.80383 z"
         style="font-size:8.46666622px;fill:#f5c396;fill-opacity:1"
         id="path4872"
         inkscape:connector-curvature="0" />
      <path
         d="m 334.52272,319.11103 -0.82337,0.32107 -1.50664,1.48755 1.77564,1.9426 0.71035,0.12376 -3.79439,0.58226 0.53387,-0.47131 -0.85887,-1.36199 -0.47588,1.40799 0.44124,0.35746 -2.96854,-0.004 0.68933,-0.27256 1.31605,-2.03632 -1.43621,-1.39759 -0.73016,-0.1848 3.60537,-0.55567 -0.4904,0.5104 0.47736,0.95997 0.70571,-1.05588 -0.49141,-0.28855 z"
         style="font-size:8.46666622px;fill:#f5c396;fill-opacity:1"
         id="path4874"
         inkscape:connector-curvature="0" />
      <path
         d="m 339.49356,324.44605 -0.47129,-0.79981 q -0.50966,0.25842 -0.99334,0.34079 -0.48288,0.0783 -0.97787,-0.0185 -0.77089,-0.1507 -1.14618,-0.68742 -0.37528,-0.53673 -0.22934,-1.28327 0.0436,-0.22315 0.14042,-0.52437 0.10085,-0.30043 0.28529,-0.76985 l -0.48175,-0.0352 -0.57849,0.65357 0.3337,-2.50431 0.44719,0.66451 0.77971,0.12715 q 0.18807,-0.38026 0.3787,-0.73053 0.19549,-0.35354 0.39838,-0.68035 l -0.96094,-0.60066 3.58514,0.53657 -1.12995,0.43624 q -0.15411,0.35741 -0.28813,0.67662 -0.12995,0.32001 -0.23971,0.62291 l 0.93705,0.14106 0.78523,-0.65528 -0.54957,2.27256 -0.442,-0.77724 -1.04209,-0.0563 q -0.10482,0.32071 -0.17745,0.58453 -0.0726,0.26382 -0.1115,0.46262 -0.088,0.45037 0.0151,0.67693 0.10314,0.22657 0.42367,0.28923 0.30835,0.0603 0.67269,-0.058 0.36433,-0.11833 0.73931,-0.39887 z"
         style="font-size:8.46666622px;fill:#f5c396;fill-opacity:1"
         id="path4876"
         inkscape:connector-curvature="0" />
    </g>
    <g
       id="g4886"
       style="font-style:normal;font-variant:normal;font-weight:normal;font-stretch:normal;font-size:10.58333302px;line-height:1.25;font-family:'Snap ITC';-inkscape-font-specification:'Snap ITC';letter-spacing:0px;word-spacing:0px;display:inline;fill:#d0b17a;fill-opacity:1;stroke:none;stroke-width:0.26458332"
       aria-label="Day"
       transform="matrix(0.89809471,0,0,0.89809471,253.13808,-335.04547)">
      <path
         id="path4880"
         inkscape:connector-curvature="0"
         style="font-style:normal;font-variant:normal;font-weight:normal;font-stretch:normal;font-size:8.46666622px;font-family:'Snap ITC';-inkscape-font-specification:'Snap ITC';fill:#d0b17a;fill-opacity:1;stroke-width:0.26458332"
         d="m 330.59204,361.62656 q 0.4968,-0.39782 0.71776,-0.86055 0.22433,-0.46751 0.14069,-0.94392 -0.0729,-0.41532 -0.33799,-0.72976 -0.26172,-0.31922 -0.70601,-0.53083 z m -2.29681,-3.08894 -1.24172,-0.54591 4.30113,-0.29344 q 1.17856,-0.0768 1.96859,0.50225 0.78931,0.57497 0.97875,1.65401 0.23591,1.3437 -0.58035,2.2887 -0.81291,0.94022 -2.58236,1.381 l -2.98627,0.72996 1.64058,-0.95961 z" />
      <path
         id="path4882"
         inkscape:connector-curvature="0"
         style="font-style:normal;font-variant:normal;font-weight:normal;font-stretch:normal;font-size:8.46666622px;font-family:'Snap ITC';-inkscape-font-specification:'Snap ITC';fill:#d0b17a;fill-opacity:1;stroke-width:0.26458332"
         d="m 335.89246,358.75588 q -0.0492,0.15657 -0.0387,0.30526 0.0105,0.14869 0.0845,0.31934 0.14487,0.33372 0.4598,0.46741 0.31707,0.12826 0.63562,-0.01 0.11377,-0.0494 0.21536,-0.14757 0.1,-0.10198 0.18559,-0.24732 -0.43696,-0.34212 -0.82588,-0.5113 -0.38678,-0.17462 -0.71629,-0.1758 z m 2.31049,-1.94492 -0.44716,0.49607 1.4933,3.12849 0.58097,0.1444 -1.57803,0.93291 -0.21768,-1.28009 q -0.1003,0.72407 -0.4324,1.21526 -0.32831,0.48955 -0.8668,0.72331 -0.64468,0.27986 -1.31719,-0.0546 -0.67037,-0.33995 -1.00949,-1.12114 -0.43296,-0.99736 -0.23714,-1.84402 0.19417,-0.85045 0.91469,-1.16323 0.54608,-0.23706 1.08454,-0.12829 0.54061,0.10334 1.07196,0.5487 l -0.74759,-1.06808 z" />
      <path
         id="path4884"
         inkscape:connector-curvature="0"
         style="font-style:normal;font-variant:normal;font-weight:normal;font-stretch:normal;font-size:8.46666622px;font-family:'Snap ITC';-inkscape-font-specification:'Snap ITC';fill:#d0b17a;fill-opacity:1;stroke-width:0.26458332"
         d="m 341.76265,353.96915 -0.45104,0.8574 q 0.9023,0.48488 1.52681,0.96674 0.62785,0.47943 0.9697,0.95158 0.36853,0.50897 0.52725,1.05246 0.16115,0.54684 0.0977,1.07253 -0.0573,0.50595 -0.30256,0.92853 -0.24527,0.42257 -0.65379,0.71836 -0.38508,0.27882 -0.81554,0.45268 -0.42802,0.17721 -0.90719,0.24853 l -0.32693,0.80325 -0.14582,-2.0483 q 0.57234,0.14194 1.01803,0.0949 0.44568,-0.0471 0.77049,-0.28226 0.43196,-0.31276 0.49434,-0.77645 0.0624,-0.46369 -0.26978,-0.92244 -0.12365,-0.17078 -0.28263,-0.30576 -0.16141,-0.13834 -0.35723,-0.24665 0.0316,0.57939 -0.19554,1.05519 -0.22379,0.47338 -0.69259,0.81281 -0.68979,0.49945 -1.41882,0.43013 -0.72567,-0.0718 -1.16208,-0.67449 -0.33458,-0.46209 -0.4425,-1.02706 -0.107,-0.57073 -0.002,-1.33554 l -0.98572,0.4432 1.8528,-1.6988 q -0.0313,0.4361 0.0509,0.81043 0.0855,0.37191 0.26737,0.62305 0.19154,0.26453 0.44243,0.34318 0.25182,0.0729 0.45273,-0.0726 0.28463,-0.20608 0.30543,-0.55801 0.0208,-0.35192 -0.23619,-0.70687 -0.16971,-0.2344 -0.35814,-0.3889 -0.18842,-0.1545 -0.40953,-0.23429 z" />
    </g>
    <g
       aria-label="Day"
       style="font-style:normal;font-variant:normal;font-weight:normal;font-stretch:normal;font-size:10.58333302px;line-height:1.25;font-family:'Snap ITC';-inkscape-font-specification:'Snap ITC';letter-spacing:0px;word-spacing:0px;display:inline;fill:#f5c396;fill-opacity:1;stroke:none;stroke-width:0.26458332"
       id="g4894"
       transform="matrix(0.89809471,0,0,0.89809471,253.2654,-334.96062)">
      <path
         d="m 330.59204,361.62656 q 0.4968,-0.39782 0.71776,-0.86055 0.22433,-0.46751 0.14069,-0.94392 -0.0729,-0.41532 -0.33799,-0.72976 -0.26172,-0.31922 -0.70601,-0.53083 z m -2.29681,-3.08894 -1.24172,-0.54591 4.30113,-0.29344 q 1.17856,-0.0768 1.96859,0.50225 0.78931,0.57497 0.97875,1.65401 0.23591,1.3437 -0.58035,2.2887 -0.81291,0.94022 -2.58236,1.381 l -2.98627,0.72996 1.64058,-0.95961 z"
         style="font-style:normal;font-variant:normal;font-weight:normal;font-stretch:normal;font-size:8.46666622px;font-family:'Snap ITC';-inkscape-font-specification:'Snap ITC';fill:#f5c396;fill-opacity:1;stroke-width:0.26458332"
         inkscape:connector-curvature="0"
         id="path4888" />
      <path
         d="m 335.89246,358.75588 q -0.0492,0.15657 -0.0387,0.30526 0.0105,0.14869 0.0845,0.31934 0.14487,0.33372 0.4598,0.46741 0.31707,0.12826 0.63562,-0.01 0.11377,-0.0494 0.21536,-0.14757 0.1,-0.10198 0.18559,-0.24732 -0.43696,-0.34212 -0.82588,-0.5113 -0.38678,-0.17462 -0.71629,-0.1758 z m 2.31049,-1.94492 -0.44716,0.49607 1.4933,3.12849 0.58097,0.1444 -1.57803,0.93291 -0.21768,-1.28009 q -0.1003,0.72407 -0.4324,1.21526 -0.32831,0.48955 -0.8668,0.72331 -0.64468,0.27986 -1.31719,-0.0546 -0.67037,-0.33995 -1.00949,-1.12114 -0.43296,-0.99736 -0.23714,-1.84402 0.19417,-0.85045 0.91469,-1.16323 0.54608,-0.23706 1.08454,-0.12829 0.54061,0.10334 1.07196,0.5487 l -0.74759,-1.06808 z"
         style="font-style:normal;font-variant:normal;font-weight:normal;font-stretch:normal;font-size:8.46666622px;font-family:'Snap ITC';-inkscape-font-specification:'Snap ITC';fill:#f5c396;fill-opacity:1;stroke-width:0.26458332"
         inkscape:connector-curvature="0"
         id="path4890" />
      <path
         d="m 341.76265,353.96915 -0.45104,0.8574 q 0.9023,0.48488 1.52681,0.96674 0.62785,0.47943 0.9697,0.95158 0.36853,0.50897 0.52725,1.05246 0.16115,0.54684 0.0977,1.07253 -0.0573,0.50595 -0.30256,0.92853 -0.24527,0.42257 -0.65379,0.71836 -0.38508,0.27882 -0.81554,0.45268 -0.42802,0.17721 -0.90719,0.24853 l -0.32693,0.80325 -0.14582,-2.0483 q 0.57234,0.14194 1.01803,0.0949 0.44568,-0.0471 0.77049,-0.28226 0.43196,-0.31276 0.49434,-0.77645 0.0624,-0.46369 -0.26978,-0.92244 -0.12365,-0.17078 -0.28263,-0.30576 -0.16141,-0.13834 -0.35723,-0.24665 0.0316,0.57939 -0.19554,1.05519 -0.22379,0.47338 -0.69259,0.81281 -0.68979,0.49945 -1.41882,0.43013 -0.72567,-0.0718 -1.16208,-0.67449 -0.33458,-0.46209 -0.4425,-1.02706 -0.107,-0.57073 -0.002,-1.33554 l -0.98572,0.4432 1.8528,-1.6988 q -0.0313,0.4361 0.0509,0.81043 0.0855,0.37191 0.26737,0.62305 0.19154,0.26453 0.44243,0.34318 0.25182,0.0729 0.45273,-0.0726 0.28463,-0.20608 0.30543,-0.55801 0.0208,-0.35192 -0.23619,-0.70687 -0.16971,-0.2344 -0.35814,-0.3889 -0.18842,-0.1545 -0.40953,-0.23429 z"
         style="font-style:normal;font-variant:normal;font-weight:normal;font-stretch:normal;font-size:8.46666622px;font-family:'Snap ITC';-inkscape-font-specification:'Snap ITC';fill:#f5c396;fill-opacity:1;stroke-width:0.26458332"
         inkscape:connector-curvature="0"
         id="path4892" />
    </g>
  </g>
</svg>
