<?xml version="1.0" encoding="UTF-8" standalone="no"?>
<!-- Created with Inkscape (http://www.inkscape.org/) -->

<svg
   xmlns:dc="http://purl.org/dc/elements/1.1/"
   xmlns:cc="http://creativecommons.org/ns#"
   xmlns:rdf="http://www.w3.org/1999/02/22-rdf-syntax-ns#"
   xmlns:svg="http://www.w3.org/2000/svg"
   xmlns="http://www.w3.org/2000/svg"
   xmlns:sodipodi="http://sodipodi.sourceforge.net/DTD/sodipodi-0.dtd"
   xmlns:inkscape="http://www.inkscape.org/namespaces/inkscape"
   width="1280"
   height="800"
   viewBox="0 0 338.66666 211.66667"
   version="1.1"
   id="svg4581"
   inkscape:version="0.92.4 (5da689c313, 2019-01-14)"
   sodipodi:docname="Map_NextDayButton_Enabled.svg">
  <defs
     id="defs4575" />
  <sodipodi:namedview
     id="base"
     pagecolor="#ffffff"
     bordercolor="#666666"
     borderopacity="1.0"
     inkscape:pageopacity="0.0"
     inkscape:pageshadow="2"
     inkscape:zoom="0.35"
     inkscape:cx="955.71429"
     inkscape:cy="1688.5714"
     inkscape:document-units="mm"
     inkscape:current-layer="layer1"
     showgrid="false"
     showborder="false"
     units="px"
     inkscape:window-width="1920"
     inkscape:window-height="1017"
     inkscape:window-x="-8"
     inkscape:window-y="-8"
     inkscape:window-maximized="1" />
  <metadata
     id="metadata4578">
    <rdf:RDF>
      <cc:Work
         rdf:about="">
        <dc:format>image/svg+xml</dc:format>
        <dc:type
           rdf:resource="http://purl.org/dc/dcmitype/StillImage" />
        <dc:title></dc:title>
      </cc:Work>
    </rdf:RDF>
  </metadata>
  <g
     inkscape:label="Layer 1"
     inkscape:groupmode="layer"
     id="layer1"
     transform="translate(0,-85.333317)">
    <g
       style="display:inline"
       id="g4846"
       transform="matrix(0.89809471,0,0,0.89809471,108.87848,-475.5763)">
      <path
         inkscape:connector-curvature="0"
         id="circle4561"
         transform="matrix(0.26458333,0,0,0.26458333,1.3229564,86.656332)"
         d="m 1248,864 a 95.999999,95.999999 0 0 0 -8.1973,0.41016 95.999996,95.999996 0 0 0 -4.7129,0.57226 95.999999,95.999999 0 0 0 -4.7851,0.72461 95.999996,95.999996 0 0 0 -4.6543,1.04297 95.999999,95.999999 0 0 0 -4.6641,1.19141 95.999996,95.999996 0 0 0 -4.5332,1.50586 95.999999,95.999999 0 0 0 -4.5293,1.65234 95.999996,95.999996 0 0 0 -4.3554,1.94922 95.999999,95.999999 0 0 0 -4.3321,2.09375 95.999996,95.999996 0 0 0 -4.1562,2.38476 95.999999,95.999999 0 0 0 -4.0899,2.50782 95.999996,95.999996 0 0 0 -3.9179,2.80273 95.999999,95.999999 0 0 0 -3.7832,2.875 95.999996,95.999996 0 0 0 -3.6485,3.20313 95.999999,95.999999 0 0 0 -3.4785,3.24218 95.999996,95.999996 0 0 0 -3.2676,3.50586 95.999999,95.999999 0 0 0 -3.1699,3.60938 95.999996,95.999996 0 0 0 -2.8984,3.81445 95.999999,95.999999 0 0 0 -2.791,3.90234 95.999996,95.999996 0 0 0 -2.5079,4.08985 95.999999,95.999999 0 0 0 -2.3847,4.15625 95.999996,95.999996 0 0 0 -2.0938,4.33203 95.999999,95.999999 0 0 0 -1.9492,4.35547 95.999996,95.999996 0 0 0 -1.6523,4.52929 95.999999,95.999999 0 0 0 -1.5059,4.53321 95.999996,95.999996 0 0 0 -1.1914,4.66406 95.999999,95.999999 0 0 0 -1.043,4.6543 95.999996,95.999996 0 0 0 -0.7246,4.78515 95.999999,95.999999 0 0 0 -0.5722,4.71289 A 95.999996,95.999996 0 0 0 1152,960 a 95.999999,95.999999 0 0 0 0.4102,8.19727 95.999996,95.999996 0 0 0 0.5722,4.71289 95.999999,95.999999 0 0 0 0.7246,4.78515 95.999996,95.999996 0 0 0 1.0391,4.63281 95.999999,95.999999 0 0 0 1.2012,4.70704 95.999996,95.999996 0 0 0 1.4863,4.47265 95.999999,95.999999 0 0 0 1.668,4.57227 95.999996,95.999996 0 0 0 1.9472,4.35152 95.999999,95.999999 0 0 0 2.0938,4.3321 95.999996,95.999996 0 0 0 2.375,4.1406 95.999999,95.999999 0 0 0 1.4062,2.4531 95.999996,95.999996 0 0 1 -1.4902,-2.0605 95.999996,95.999996 0 0 0 83.2812,48.4883 95.999996,95.999996 0 0 0 96,-96.00004 95.999996,95.999996 0 0 0 -6.4257,-34.12696 95.999999,95.999999 0 0 0 -50.3145,-54.83008 95.999996,95.999996 0 0 0 0,-0.002 95.999999,95.999999 0 0 0 -8.2227,-3.30664 95.999996,95.999996 0 0 0 -1.0117,-0.36914 95.999999,95.999999 0 0 0 -7.4883,-2.16992 95.999996,95.999996 0 0 0 -2.0722,-0.5293 95.999999,95.999999 0 0 0 -6.6192,-1.21875 95.999996,95.999996 0 0 0 -3.1699,-0.48047 95.999999,95.999999 0 0 0 -5.6211,-0.46289 A 95.999996,95.999996 0 0 0 1248,864 Z"
         style="display:inline;opacity:1;fill:#a89f68;fill-opacity:1;fill-rule:nonzero;stroke:#41521f;stroke-width:20;stroke-linecap:butt;stroke-linejoin:miter;stroke-miterlimit:4;stroke-dasharray:none;stroke-opacity:1" />
      <path
         style="display:inline;opacity:1;fill:#a89f68;fill-opacity:1;fill-rule:nonzero;stroke:none;stroke-width:0.70599997;stroke-linecap:butt;stroke-linejoin:miter;stroke-miterlimit:4;stroke-dasharray:none;stroke-opacity:1"
         d="m 355.60001,339.33331 a 25.4,25.4 0 0 1 -25.4,25.4 25.4,25.4 0 0 1 -25.4,-25.4 25.4,25.4 0 0 1 25.4,-25.4 25.4,25.4 0 0 1 25.4,25.4 z"
         id="path4539"
         inkscape:connector-curvature="0"
         transform="translate(1.3229564,1.3230154)" />
      <path
         inkscape:connector-curvature="0"
         id="circle4543"
         d="m 330.2,313.93332 a 25.399999,25.399999 0 0 0 -25.4,25.4 25.399999,25.399999 0 0 0 17.89401,24.26518 25.399999,25.399999 0 0 1 -14.82029,-23.06267 25.399999,25.399999 0 0 1 25.4,-25.4 25.399999,25.399999 0 0 1 7.50289,1.13326 A 25.399999,25.399999 0 0 0 330.2,313.93332 Z"
         style="display:inline;opacity:1;fill:#8c8451;fill-opacity:1;fill-rule:nonzero;stroke:none;stroke-width:0.70599997;stroke-linecap:butt;stroke-linejoin:miter;stroke-miterlimit:4;stroke-dasharray:none;stroke-opacity:1"
         transform="translate(1.3229564,1.3230154)" />
      <path
         inkscape:connector-curvature="0"
         id="circle4548"
         d="m 351.57335,325.81756 a 25.399999,25.399999 0 0 1 3.36519,12.57081 25.399999,25.399999 0 0 1 -25.4,25.4 25.399999,25.399999 0 0 1 -21.18424,-11.41171 25.399999,25.399999 0 0 0 22.03482,12.82919 25.399999,25.399999 0 0 0 25.4,-25.39999 25.399999,25.399999 0 0 0 -4.21577,-13.9883 z"
         style="display:inline;opacity:1;fill:#baad56;fill-opacity:1;fill-rule:nonzero;stroke:none;stroke-width:0.70599997;stroke-linecap:butt;stroke-linejoin:miter;stroke-miterlimit:4;stroke-dasharray:none;stroke-opacity:1"
         transform="translate(1.3229564,1.3230154)" />
      <path
         sodipodi:nodetypes="scssccsss"
         inkscape:connector-curvature="0"
         id="path4576"
         d="m 320.27006,331.02321 c -2.13671,-3.40342 13.94957,-6.83388 16.13152,-3.34087 -0.7556,2.93684 -0.16017,8.30119 -4.30006,10.13704 -1.12446,0.49865 -1.62501,1.92426 -2.64934,2.57986 -7.05243,4.51373 -4.57576,10.5072 -2.90893,13.75254 6.52192,-1.39722 9.21609,-1.27696 14.76666,-5.34541 0.7767,-1.80914 -1.26333,-7.85133 -9.29693,-8.90522 -3.48527,-0.45721 -0.48145,-0.20927 -4.16746,-1.38065 -5.44608,-1.73072 -5.01533,-3.41944 -7.57546,-7.49729 z"
         style="fill:none;stroke:#38471b;stroke-width:2.11666656;stroke-linecap:butt;stroke-linejoin:round;stroke-miterlimit:4;stroke-dasharray:none;stroke-opacity:1" />
      <path
         style="fill:none;stroke:#41521f;stroke-width:2.11666656;stroke-linecap:butt;stroke-linejoin:round;stroke-miterlimit:4;stroke-dasharray:none;stroke-opacity:1"
         d="m 320.93152,331.40119 c -2.13671,-3.40342 13.94957,-6.83388 16.13152,-3.34087 -0.7556,2.93684 -0.16017,8.30119 -4.30006,10.13704 -1.12446,0.49865 -1.62501,1.92426 -2.64934,2.57986 -7.05243,4.51373 -4.57576,10.5072 -2.90893,13.75254 6.52192,-1.39722 9.21609,-1.27696 14.76666,-5.34541 0.7767,-1.80914 -1.26333,-7.85133 -9.29693,-8.90522 -3.48527,-0.45721 -0.48145,-0.20927 -4.16746,-1.38065 -5.44608,-1.73072 -5.01533,-3.41944 -7.57546,-7.49729 z"
         id="path4574"
         inkscape:connector-curvature="0"
         sodipodi:nodetypes="scssccsss" />
      <g
         id="g4679"
         style="font-style:normal;font-variant:normal;font-weight:normal;font-stretch:normal;font-size:10.58333302px;line-height:1.25;font-family:'Snap ITC';-inkscape-font-specification:'Snap ITC';letter-spacing:0px;word-spacing:0px;fill:#38471b;fill-opacity:1;stroke:none;stroke-width:0.26458332"
         aria-label="Next"
         transform="translate(-0.13363476,-0.05871108)">
        <path
           inkscape:connector-curvature="0"
           id="path4671"
           style="font-size:8.46666622px;fill:#38471b;fill-opacity:1"
           d="m 319.49527,320.37011 -0.38434,0.58926 2.10761,4.40809 0.98506,-0.20256 -1.71329,1.32975 -4.86005,-1.91983 2.99442,2.67189 1.24125,-0.0989 -4.0909,2.17609 0.32592,-0.78341 -2.25481,-3.96985 -1.05849,0.21128 2.631,-2.31931 4.31746,2.69731 -2.51676,-3.14935 -0.80716,-0.008 z" />
        <path
           inkscape:connector-curvature="0"
           id="path4673"
           style="font-size:8.46666622px;fill:#38471b;fill-opacity:1"
           d="m 322.71881,322.2603 q 0.15844,0.0629 0.34662,0.0687 0.18694,0.002 0.36441,-0.0539 0.31156,-0.098 0.4517,-0.34138 0.14014,-0.24342 0.0509,-0.52737 -0.0434,-0.13803 -0.11756,-0.23605 -0.0742,-0.098 -0.18798,-0.17058 -0.40214,0.19579 -0.63118,0.51483 -0.22634,0.31385 -0.27687,0.74577 z m 4.80819,1.57802 -0.56079,-0.54305 q -0.42035,0.4962 -0.89402,0.82283 -0.47368,0.32662 -1.03369,0.50271 -1.09242,0.3435 -1.92091,0.0103 -0.8258,-0.33839 -1.10729,-1.23362 -0.14881,-0.47325 -0.10899,-0.96681 0.0425,-0.49874 0.26693,-0.929 0.2163,-0.4147 0.57955,-0.7066 0.36719,-0.29314 0.86805,-0.45063 0.95833,-0.30134 1.71164,-0.0832 0.75332,0.21817 0.95049,0.84522 0.19842,0.631 -0.24344,1.23797 -0.43792,0.60574 -1.3016,0.87731 -0.21296,0.067 -0.40824,0.0937 -0.19651,0.0228 -0.38718,0.009 0.45008,0.13583 0.84346,0.14648 0.39608,0.005 0.77468,-0.11358 0.46142,-0.14509 0.78342,-0.47169 0.32201,-0.3266 0.4753,-0.80383 z" />
        <path
           inkscape:connector-curvature="0"
           id="path4675"
           style="font-size:8.46666622px;fill:#38471b;fill-opacity:1"
           d="m 334.52272,319.11103 -0.82337,0.32107 -1.50664,1.48755 1.77564,1.9426 0.71035,0.12376 -3.79439,0.58226 0.53387,-0.47131 -0.85887,-1.36199 -0.47588,1.40799 0.44124,0.35746 -2.96854,-0.004 0.68933,-0.27256 1.31605,-2.03632 -1.43621,-1.39759 -0.73016,-0.1848 3.60537,-0.55567 -0.4904,0.5104 0.47736,0.95997 0.70571,-1.05588 -0.49141,-0.28855 z" />
        <path
           inkscape:connector-curvature="0"
           id="path4677"
           style="font-size:8.46666622px;fill:#38471b;fill-opacity:1"
           d="m 339.49356,324.44605 -0.47129,-0.79981 q -0.50966,0.25842 -0.99334,0.34079 -0.48288,0.0783 -0.97787,-0.0185 -0.77089,-0.1507 -1.14618,-0.68742 -0.37528,-0.53673 -0.22934,-1.28327 0.0436,-0.22315 0.14042,-0.52437 0.10085,-0.30043 0.28529,-0.76985 l -0.48175,-0.0352 -0.57849,0.65357 0.3337,-2.50431 0.44719,0.66451 0.77971,0.12715 q 0.18807,-0.38026 0.3787,-0.73053 0.19549,-0.35354 0.39838,-0.68035 l -0.96094,-0.60066 3.58514,0.53657 -1.12995,0.43624 q -0.15411,0.35741 -0.28813,0.67662 -0.12995,0.32001 -0.23971,0.62291 l 0.93705,0.14106 0.78523,-0.65528 -0.54957,2.27256 -0.442,-0.77724 -1.04209,-0.0563 q -0.10482,0.32071 -0.17745,0.58453 -0.0726,0.26382 -0.1115,0.46262 -0.088,0.45037 0.0151,0.67693 0.10314,0.22657 0.42367,0.28923 0.30835,0.0603 0.67269,-0.058 0.36433,-0.11833 0.73931,-0.39887 z" />
      </g>
      <g
         aria-label="Next"
         style="font-style:normal;font-variant:normal;font-weight:normal;font-stretch:normal;font-size:10.58333302px;line-height:1.25;font-family:'Snap ITC';-inkscape-font-specification:'Snap ITC';letter-spacing:0px;word-spacing:0px;fill:#41521f;fill-opacity:1;stroke:none;stroke-width:0.26458332"
         id="text4597">
        <path
           d="m 319.49527,320.37011 -0.38434,0.58926 2.10761,4.40809 0.98506,-0.20256 -1.71329,1.32975 -4.86005,-1.91983 2.99442,2.67189 1.24125,-0.0989 -4.0909,2.17609 0.32592,-0.78341 -2.25481,-3.96985 -1.05849,0.21128 2.631,-2.31931 4.31746,2.69731 -2.51676,-3.14935 -0.80716,-0.008 z"
           style="font-size:8.46666622px"
           id="path4621"
           inkscape:connector-curvature="0" />
        <path
           d="m 322.71881,322.2603 q 0.15844,0.0629 0.34662,0.0687 0.18694,0.002 0.36441,-0.0539 0.31156,-0.098 0.4517,-0.34138 0.14014,-0.24342 0.0509,-0.52737 -0.0434,-0.13803 -0.11756,-0.23605 -0.0742,-0.098 -0.18798,-0.17058 -0.40214,0.19579 -0.63118,0.51483 -0.22634,0.31385 -0.27687,0.74577 z m 4.80819,1.57802 -0.56079,-0.54305 q -0.42035,0.4962 -0.89402,0.82283 -0.47368,0.32662 -1.03369,0.50271 -1.09242,0.3435 -1.92091,0.0103 -0.8258,-0.33839 -1.10729,-1.23362 -0.14881,-0.47325 -0.10899,-0.96681 0.0425,-0.49874 0.26693,-0.929 0.2163,-0.4147 0.57955,-0.7066 0.36719,-0.29314 0.86805,-0.45063 0.95833,-0.30134 1.71164,-0.0832 0.75332,0.21817 0.95049,0.84522 0.19842,0.631 -0.24344,1.23797 -0.43792,0.60574 -1.3016,0.87731 -0.21296,0.067 -0.40824,0.0937 -0.19651,0.0228 -0.38718,0.009 0.45008,0.13583 0.84346,0.14648 0.39608,0.005 0.77468,-0.11358 0.46142,-0.14509 0.78342,-0.47169 0.32201,-0.3266 0.4753,-0.80383 z"
           style="font-size:8.46666622px"
           id="path4623"
           inkscape:connector-curvature="0" />
        <path
           d="m 334.52272,319.11103 -0.82337,0.32107 -1.50664,1.48755 1.77564,1.9426 0.71035,0.12376 -3.79439,0.58226 0.53387,-0.47131 -0.85887,-1.36199 -0.47588,1.40799 0.44124,0.35746 -2.96854,-0.004 0.68933,-0.27256 1.31605,-2.03632 -1.43621,-1.39759 -0.73016,-0.1848 3.60537,-0.55567 -0.4904,0.5104 0.47736,0.95997 0.70571,-1.05588 -0.49141,-0.28855 z"
           style="font-size:8.46666622px"
           id="path4625"
           inkscape:connector-curvature="0" />
        <path
           d="m 339.49356,324.44605 -0.47129,-0.79981 q -0.50966,0.25842 -0.99334,0.34079 -0.48288,0.0783 -0.97787,-0.0185 -0.77089,-0.1507 -1.14618,-0.68742 -0.37528,-0.53673 -0.22934,-1.28327 0.0436,-0.22315 0.14042,-0.52437 0.10085,-0.30043 0.28529,-0.76985 l -0.48175,-0.0352 -0.57849,0.65357 0.3337,-2.50431 0.44719,0.66451 0.77971,0.12715 q 0.18807,-0.38026 0.3787,-0.73053 0.19549,-0.35354 0.39838,-0.68035 l -0.96094,-0.60066 3.58514,0.53657 -1.12995,0.43624 q -0.15411,0.35741 -0.28813,0.67662 -0.12995,0.32001 -0.23971,0.62291 l 0.93705,0.14106 0.78523,-0.65528 -0.54957,2.27256 -0.442,-0.77724 -1.04209,-0.0563 q -0.10482,0.32071 -0.17745,0.58453 -0.0726,0.26382 -0.1115,0.46262 -0.088,0.45037 0.0151,0.67693 0.10314,0.22657 0.42367,0.28923 0.30835,0.0603 0.67269,-0.058 0.36433,-0.11833 0.73931,-0.39887 z"
           style="font-size:8.46666622px"
           id="path4627"
           inkscape:connector-curvature="0" />
      </g>
      <g
         id="g4687"
         style="font-style:normal;font-variant:normal;font-weight:normal;font-stretch:normal;font-size:10.58333302px;line-height:1.25;font-family:'Snap ITC';-inkscape-font-specification:'Snap ITC';letter-spacing:0px;word-spacing:0px;fill:#38471b;fill-opacity:1;stroke:none;stroke-width:0.26458332"
         aria-label="Day"
         transform="translate(-0.14174107,-0.09449405)">
        <path
           id="path4681"
           inkscape:connector-curvature="0"
           style="font-style:normal;font-variant:normal;font-weight:normal;font-stretch:normal;font-size:8.46666622px;font-family:'Snap ITC';-inkscape-font-specification:'Snap ITC';fill:#38471b;fill-opacity:1;stroke-width:0.26458332"
           d="m 330.59204,361.62656 q 0.4968,-0.39782 0.71776,-0.86055 0.22433,-0.46751 0.14069,-0.94392 -0.0729,-0.41532 -0.33799,-0.72976 -0.26172,-0.31922 -0.70601,-0.53083 z m -2.29681,-3.08894 -1.24172,-0.54591 4.30113,-0.29344 q 1.17856,-0.0768 1.96859,0.50225 0.78931,0.57497 0.97875,1.65401 0.23591,1.3437 -0.58035,2.2887 -0.81291,0.94022 -2.58236,1.381 l -2.98627,0.72996 1.64058,-0.95961 z" />
        <path
           id="path4683"
           inkscape:connector-curvature="0"
           style="font-style:normal;font-variant:normal;font-weight:normal;font-stretch:normal;font-size:8.46666622px;font-family:'Snap ITC';-inkscape-font-specification:'Snap ITC';fill:#38471b;fill-opacity:1;stroke-width:0.26458332"
           d="m 335.89246,358.75588 q -0.0492,0.15657 -0.0387,0.30526 0.0105,0.14869 0.0845,0.31934 0.14487,0.33372 0.4598,0.46741 0.31707,0.12826 0.63562,-0.01 0.11377,-0.0494 0.21536,-0.14757 0.1,-0.10198 0.18559,-0.24732 -0.43696,-0.34212 -0.82588,-0.5113 -0.38678,-0.17462 -0.71629,-0.1758 z m 2.31049,-1.94492 -0.44716,0.49607 1.4933,3.12849 0.58097,0.1444 -1.57803,0.93291 -0.21768,-1.28009 q -0.1003,0.72407 -0.4324,1.21526 -0.32831,0.48955 -0.8668,0.72331 -0.64468,0.27986 -1.31719,-0.0546 -0.67037,-0.33995 -1.00949,-1.12114 -0.43296,-0.99736 -0.23714,-1.84402 0.19417,-0.85045 0.91469,-1.16323 0.54608,-0.23706 1.08454,-0.12829 0.54061,0.10334 1.07196,0.5487 l -0.74759,-1.06808 z" />
        <path
           id="path4685"
           inkscape:connector-curvature="0"
           style="font-style:normal;font-variant:normal;font-weight:normal;font-stretch:normal;font-size:8.46666622px;font-family:'Snap ITC';-inkscape-font-specification:'Snap ITC';fill:#38471b;fill-opacity:1;stroke-width:0.26458332"
           d="m 341.76265,353.96915 -0.45104,0.8574 q 0.9023,0.48488 1.52681,0.96674 0.62785,0.47943 0.9697,0.95158 0.36853,0.50897 0.52725,1.05246 0.16115,0.54684 0.0977,1.07253 -0.0573,0.50595 -0.30256,0.92853 -0.24527,0.42257 -0.65379,0.71836 -0.38508,0.27882 -0.81554,0.45268 -0.42802,0.17721 -0.90719,0.24853 l -0.32693,0.80325 -0.14582,-2.0483 q 0.57234,0.14194 1.01803,0.0949 0.44568,-0.0471 0.77049,-0.28226 0.43196,-0.31276 0.49434,-0.77645 0.0624,-0.46369 -0.26978,-0.92244 -0.12365,-0.17078 -0.28263,-0.30576 -0.16141,-0.13834 -0.35723,-0.24665 0.0316,0.57939 -0.19554,1.05519 -0.22379,0.47338 -0.69259,0.81281 -0.68979,0.49945 -1.41882,0.43013 -0.72567,-0.0718 -1.16208,-0.67449 -0.33458,-0.46209 -0.4425,-1.02706 -0.107,-0.57073 -0.002,-1.33554 l -0.98572,0.4432 1.8528,-1.6988 q -0.0313,0.4361 0.0509,0.81043 0.0855,0.37191 0.26737,0.62305 0.19154,0.26453 0.44243,0.34318 0.25182,0.0729 0.45273,-0.0726 0.28463,-0.20608 0.30543,-0.55801 0.0208,-0.35192 -0.23619,-0.70687 -0.16971,-0.2344 -0.35814,-0.3889 -0.18842,-0.1545 -0.40953,-0.23429 z" />
      </g>
      <g
         aria-label="Day"
         style="font-style:normal;font-variant:normal;font-weight:normal;font-stretch:normal;font-size:10.58333302px;line-height:1.25;font-family:'Snap ITC';-inkscape-font-specification:'Snap ITC';letter-spacing:0px;word-spacing:0px;fill:#41521f;fill-opacity:1;stroke:none;stroke-width:0.26458332"
         id="text4642">
        <path
           d="m 330.59204,361.62656 q 0.4968,-0.39782 0.71776,-0.86055 0.22433,-0.46751 0.14069,-0.94392 -0.0729,-0.41532 -0.33799,-0.72976 -0.26172,-0.31922 -0.70601,-0.53083 z m -2.29681,-3.08894 -1.24172,-0.54591 4.30113,-0.29344 q 1.17856,-0.0768 1.96859,0.50225 0.78931,0.57497 0.97875,1.65401 0.23591,1.3437 -0.58035,2.2887 -0.81291,0.94022 -2.58236,1.381 l -2.98627,0.72996 1.64058,-0.95961 z"
           style="font-style:normal;font-variant:normal;font-weight:normal;font-stretch:normal;font-size:8.46666622px;font-family:'Snap ITC';-inkscape-font-specification:'Snap ITC';fill:#41521f;fill-opacity:1;stroke-width:0.26458332"
           inkscape:connector-curvature="0"
           id="path4663" />
        <path
           d="m 335.89246,358.75588 q -0.0492,0.15657 -0.0387,0.30526 0.0105,0.14869 0.0845,0.31934 0.14487,0.33372 0.4598,0.46741 0.31707,0.12826 0.63562,-0.01 0.11377,-0.0494 0.21536,-0.14757 0.1,-0.10198 0.18559,-0.24732 -0.43696,-0.34212 -0.82588,-0.5113 -0.38678,-0.17462 -0.71629,-0.1758 z m 2.31049,-1.94492 -0.44716,0.49607 1.4933,3.12849 0.58097,0.1444 -1.57803,0.93291 -0.21768,-1.28009 q -0.1003,0.72407 -0.4324,1.21526 -0.32831,0.48955 -0.8668,0.72331 -0.64468,0.27986 -1.31719,-0.0546 -0.67037,-0.33995 -1.00949,-1.12114 -0.43296,-0.99736 -0.23714,-1.84402 0.19417,-0.85045 0.91469,-1.16323 0.54608,-0.23706 1.08454,-0.12829 0.54061,0.10334 1.07196,0.5487 l -0.74759,-1.06808 z"
           style="font-style:normal;font-variant:normal;font-weight:normal;font-stretch:normal;font-size:8.46666622px;font-family:'Snap ITC';-inkscape-font-specification:'Snap ITC';fill:#41521f;fill-opacity:1;stroke-width:0.26458332"
           inkscape:connector-curvature="0"
           id="path4665" />
        <path
           d="m 341.76265,353.96915 -0.45104,0.8574 q 0.9023,0.48488 1.52681,0.96674 0.62785,0.47943 0.9697,0.95158 0.36853,0.50897 0.52725,1.05246 0.16115,0.54684 0.0977,1.07253 -0.0573,0.50595 -0.30256,0.92853 -0.24527,0.42257 -0.65379,0.71836 -0.38508,0.27882 -0.81554,0.45268 -0.42802,0.17721 -0.90719,0.24853 l -0.32693,0.80325 -0.14582,-2.0483 q 0.57234,0.14194 1.01803,0.0949 0.44568,-0.0471 0.77049,-0.28226 0.43196,-0.31276 0.49434,-0.77645 0.0624,-0.46369 -0.26978,-0.92244 -0.12365,-0.17078 -0.28263,-0.30576 -0.16141,-0.13834 -0.35723,-0.24665 0.0316,0.57939 -0.19554,1.05519 -0.22379,0.47338 -0.69259,0.81281 -0.68979,0.49945 -1.41882,0.43013 -0.72567,-0.0718 -1.16208,-0.67449 -0.33458,-0.46209 -0.4425,-1.02706 -0.107,-0.57073 -0.002,-1.33554 l -0.98572,0.4432 1.8528,-1.6988 q -0.0313,0.4361 0.0509,0.81043 0.0855,0.37191 0.26737,0.62305 0.19154,0.26453 0.44243,0.34318 0.25182,0.0729 0.45273,-0.0726 0.28463,-0.20608 0.30543,-0.55801 0.0208,-0.35192 -0.23619,-0.70687 -0.16971,-0.2344 -0.35814,-0.3889 -0.18842,-0.1545 -0.40953,-0.23429 z"
           style="font-style:normal;font-variant:normal;font-weight:normal;font-stretch:normal;font-size:8.46666622px;font-family:'Snap ITC';-inkscape-font-specification:'Snap ITC';fill:#41521f;fill-opacity:1;stroke-width:0.26458332"
           inkscape:connector-curvature="0"
           id="path4667" />
      </g>
    </g>
  </g>
</svg>
